<svg viewBox="0 0.4 960 788.4" xmlns="http://www.w3.org/2000/svg" width="2500" height="2052"><linearGradient id="a" gradientTransform="matrix(-559.822 -813.34 1073.575 -738.943 806.423 515.789)" gradientUnits="userSpaceOnUse" x2="1"><stop offset="0" stop-color="#bfe8ff"/><stop offset=".308" stop-color="#bfabff"/><stop offset="1" stop-color="#7341ff"/></linearGradient><radialGradient id="b" cx="725.44" cy="-405.848" gradientUnits="userSpaceOnUse" r="1540.059"><stop offset=".503" stop-color="#6d4aff"/><stop offset=".994" stop-color="#06b8ff"/></radialGradient><path d="M102.9.4C46.1.4 0 46.4 0 103.2v34.3l34.3 34.3v582.7L720 411.7l34.3 34.3H960V103.2C960 46.4 913.9.4 857.1.4z" fill="url(#a)"/><path d="M673.5 137.5H0V690c0 54.6 44.2 98.8 98.8 98.8h346.9l180-270c17.5-42.7 59.4-72.8 108.4-72.8h20.2V218.3c0-44.6-36.2-80.8-80.8-80.8z" fill="url(#b)"/><path d="M445.7 788.8v-36.9c0-20.4 7.3-40.2 20.6-55.7L639.6 494q5.4-7.4 11.8-13.8L639.6 494c-14.1 19.3-22.5 43.1-22.5 68.9v225.9z" fill="#b8d7ff"/><g fill="#8f69ff"><path d="M706.3 664.9h35c1.4 6 4.9 11.3 10 15.1 5 3.7 11.2 5.6 17.5 5.3 15.8 0 26.2-8.7 26.2-21.3 0-12.7-10.8-19.7-32.3-19.7h-13.9v-28.6h12.1c20.7 0 29.3-7.6 29.3-19s-9.3-19.2-22-19.2c-5.7-.3-11.4 1.5-15.7 5.2s-7 9-7.5 14.6h-33.7c1.2-19.9 17-48.5 56.7-48.5 31.8 0 53.8 18 53.8 43.4 0 8.1-2.5 16.1-7.4 22.6s-11.7 11.5-19.5 13.9v.5c9.2 1.6 17.4 6.4 23.2 13.6 5.7 7.1 8.8 16 8.5 25.3 0 27.4-25.4 45.6-58.1 45.6-34.8.2-59.7-19.5-62.2-48.8zM887.7 551.6h25.5v159.8h-32.9V588.8l-31.6 21.3v-32.3z"/></g></svg>